<svg xmlns="http://www.w3.org/2000/svg" version="1.1" xmlns:xlink="http://www.w3.org/1999/xlink" xmlns:svgjs="http://svgjs.dev/svgjs" width="100%" height="100%" viewBox="0 0 1000 600"><rect width="1000" height="600" x="0" y="0" fill="#f3f3f300"/><g><rect width="333.3333333333333" height="333.3333333333333" rx="13.333333333333334" ry="13.333333333333334" y="181.4536903796792" fill="#6ce4cf" transform="matrix(0.785020821450694,0,0,0.785020821450694,0,26.718290777505246)" x="159.2314910888672"/><path d="M319.9922126724063 411.4998722768858L319.9922126724063 411.4998722768858Q319.9922126724063 423.12036066382376 297.3527670620895 423.12036066382376L297.3527670620895 423.12036066382376Q292.4311484511511 423.12036066382376 291.55619403142873 418.08937275042007Q290.65389728609 413.0857271626326 290.65389728609 405.5939299437597Q290.65389728609 398.12947505050306 291.74759031074296 389.5439848069771Q292.841283335396 380.9858368890675 294.5911921748407 370.9512033878764L294.5911921748407 370.9512033878764Q297.9542982256487 351.6475215027512 304.1610061405544 329.308841474214Q310.34037172984375 306.97016144567675 316.46505266790047 294.775484220796L316.46505266790047 294.775484220796Q304.05163683808905 295.5410693380531 291.8569596132083 299.20494097064056Q279.63494006271117 302.84147027761173 274.52192517245845 304.3179558608933Q269.40891028220574 305.7944414441748 266.0458042313978 305.7944414441748Q262.7100405062062 305.7944414441748 262.7100405062062 303.63439772048514L262.7100405062062 303.63439772048514Q262.7100405062062 301.06421911255063 266.647335394957 296.03323119914694Q270.5846302837077 291.0295856113595 277.85768889765006 285.91657072110684L277.85768889765006 285.91657072110684Q296.36844333990183 273.3117586119812 319.0078889502186 273.1203623326669L319.0078889502186 273.1203623326669L383.78185833529164 273.6945511706097Q389.08626950485865 273.6945511706097 389.08626950485865 277.82324233867473L389.08626950485865 277.82324233867473Q389.08626950485865 279.026304665793 387.52775694472814 282.061302809205Q385.9419020589813 285.12364327823343 384.76618205747934 288.6508032827393L384.76618205747934 288.6508032827393Q382.19600344954483 295.7598079429837 374.0479904158801 295.7598079429837Q365.87263505659905 295.7598079429837 335.16720338946647 294.5567456158654L335.16720338946647 294.5567456158654Q334.37427594659306 303.2242628362403 331.99549361797284 316.70402936508833Q329.6440536149689 330.2111382195527 326.8824787277201 346.15171405386997L326.8824787277201 346.15171405386997Q320.1836089517206 386.89177922219363 319.9922126724063 411.4998722768858Z " fill="#ffffff" transform="matrix(0.785020821450694,0,0,0.785020821450694,0,26.718290777505246)"/><path d="M633.1073258542656 411.323529237043L633.1073258542656 411.323529237043Q633.1073258542656 422.9292091288731 610.4967306767707 422.9292091288731L610.4967306767707 422.9292091288731Q605.5813838990543 422.9292091288731 604.7075444719048 417.9046324227631Q603.8063975626568 412.9073631987515 603.8063975626568 405.4251131037834Q603.8063975626568 397.97017049091374 604.8986968465938 389.39562111200866Q605.9909961305307 380.84837921520204 607.7386749848299 370.82653328508053L607.7386749848299 370.82653328508053Q611.097495282936 351.5474509235933 617.2962937192781 329.2372380491811Q623.4677846735219 306.92702517476886 629.5846606635689 294.7478881588719L629.5846606635689 294.7478881588719Q617.1870637908844 295.51249765762776 605.0079267749875 299.1717002588165Q592.801482276992 302.8035953779069 587.6949831245868 304.2781994112218Q582.5884839721816 305.75280344453665 579.2296636740755 305.75280344453665Q575.8981508580678 305.75280344453665 575.8981508580678 303.5955123587612L575.8981508580678 303.5955123587612Q575.8981508580678 301.0286090415093 579.8304282802408 296.0040323353994Q583.7627057024138 291.00676311138784 591.0264959405945 285.9002639589826L591.0264959405945 285.9002639589826Q609.5136613212273 273.3115147116092 632.1242564987223 273.12036233692027L632.1242564987223 273.12036233692027L696.8156815898882 273.69381946098713Q702.1133331169825 273.69381946098713 702.1133331169825 277.81724925784914L702.1133331169825 277.81724925784914Q702.1133331169825 279.01877847017977 700.5568066373722 282.04990898310484Q698.9729726756638 285.1083469781283 697.7987509454314 288.63101216882495L697.7987509454314 288.63101216882495Q695.2318476281797 295.73095751441514 687.0942179628493 295.73095751441514Q678.9292808154206 295.73095751441514 648.2629784188907 294.5294283020845L648.2629784188907 294.5294283020845Q647.4710614380365 303.1859001272848 645.0953104954735 316.64848880180773Q642.7468670350091 330.13838495842907 639.9888113430684 346.05864702181015L639.9888113430684 346.05864702181015Q633.2984782289545 386.74679534846155 633.1073258542656 411.323529237043ZM705.2810010403997 386.93794772315056L705.2810010403997 386.93794772315056L706.4552227706318 410.941224487665Q706.4552227706318 415.66541889069237 701.5398759929154 419.379236456078Q696.6245292151992 423.12036150356204 688.159209764688 423.12036150356204L688.159209764688 423.12036150356204Q683.2438629869715 423.12036150356204 681.3869542042788 418.0138623511568Q679.5027379394875 412.9073631987515 679.5027379394875 403.076669643319L679.5027379394875 403.076669643319Q679.5027379394875 382.4322131769106 681.5781065789678 370.71730335668684Q683.6534752184479 359.0297010185614 689.7430437263964 347.0417163773534L689.7430437263964 347.0417163773534Q680.7042671518183 338.3852445521531 680.7042671518183 332.1045236695156L680.7042671518183 332.1045236695156Q680.7042671518183 318.91500981597693 694.8495428788018 318.91500981597693L694.8495428788018 318.91500981597693Q702.1133331169825 318.91500981597693 707.629444500864 326.588412285634L707.629444500864 326.588412285634Q711.561721923037 331.8860638127282 713.3367082594347 338.9860091583184L713.3367082594347 338.9860091583184Q716.0947639513755 339.96907851386163 720.2181937482375 339.96907851386163L720.2181937482375 339.96907851386163Q725.9254575068079 339.96907851386163 733.3804001196776 336.2279534663776L733.3804001196776 336.2279534663776L738.486899272083 333.66105014912574Q740.8626502146457 332.48682841889354 742.6376365510433 332.48682841889354L742.6376365510433 332.48682841889354Q748.3175928275156 332.48682841889354 754.024856586086 349.1990074631289L754.024856586086 349.1990074631289Q752.2498702496886 356.87240993278596 750.2018090923067 363.9450477962777Q748.1264404528264 371.0176856597695 745.3683847608858 381.039531589891Q742.6376365510433 391.08868500211094 742.5284066226496 394.52942774651234Q742.419176694256 397.97017049091374 744.6037752621297 397.97017049091374L744.6037752621297 397.97017049091374Q747.5529833287595 397.97017049091374 751.8675655003104 394.2290454434297Q756.1821476718616 390.48792039594565 760.5240373255109 386.06410829600094Q764.8386194970618 381.64029619605634 768.4705146161522 377.8991711485723Q772.129717217341 374.1580461010882 773.4950913222623 374.1580461010882L773.4950913222623 374.1580461010882Q776.2531470142029 374.1580461010882 776.2531470142029 380.84837921520204L776.2531470142029 380.84837921520204Q776.2531470142029 394.42019781811865 764.3470848192902 407.5824041895589Q752.468330106476 420.7719180430976 737.1215251671616 420.5807656684086L737.1215251671616 420.5807656684086Q728.0827485925835 420.5807656684086 723.5497065642452 413.2896679481295Q719.0439720180051 406.02587770994876 718.8255121612177 395.59441954835086L718.8255121612177 395.59441954835086Q718.8255121612177 374.9499630819425 728.0827485925835 356.4627977013096L728.0827485925835 356.4627977013096Q723.7408589389341 358.2377840377072 718.3339774834461 358.2377840377072Q712.9270960279583 358.2377840377072 710.5786525674938 357.8554792883292L710.5786525674938 357.8554792883292Q708.8036662310961 365.31042190119894 707.0286798946987 372.9019019245607Q705.2810010403997 380.4660744658241 705.2810010403997 386.93794772315056ZM812.217100937827 398.5436276149806L812.217100937827 398.5436276149806Q827.5639058771413 398.5436276149806 841.9276414609122 386.36449059908364L841.9276414609122 386.36449059908364Q847.2252929880063 381.8314485707453 850.5568058040141 378.008401076966Q853.9156261021202 374.1580461010882 855.6906124385179 374.1580461010882L855.6906124385179 374.1580461010882Q858.4213606483601 374.1580461010882 858.4213606483601 379.67415748496984Q858.4213606483601 385.19026886885143 855.4721525817305 391.9625244292605Q852.5229445151004 398.7347799896696 845.6414590262979 405.23396072909446L845.6414590262979 405.23396072909446Q828.7381276073735 421.15422279247554 799.2460469410759 421.15422279247554L799.2460469410759 421.15422279247554Q775.8435347827266 421.15422279247554 767.4055228143137 404.2508913735512L767.4055228143137 404.2508913735512Q764.4563147476839 398.35247524029165 764.4563147476839 387.3475599546269Q764.4563147476839 376.3426446689621 768.7708969192348 364.4365824740493Q773.1127865728841 352.53052027913657 780.2673468826712 343.9013559360347Q787.4492146745566 335.24488411083433 796.8976034806113 330.41145977941335Q806.3186848045676 325.6053429300907 817.0505252692482 325.6053429300907Q827.7550582518303 325.6053429300907 833.5715519387944 330.90299445718495Q839.3607381436603 336.2279534663776 839.3607381436603 344.6659654347905Q839.3607381436603 353.1312848853019 835.1280784184047 358.5381663407898Q830.895418693149 363.9450477962777 824.2323930611336 367.5769429153681Q817.5420599470198 371.20883803445844 809.3771227995909 374.0761236547929Q801.2121856521622 376.91610179302904 793.3476308078162 380.4660744658241L793.3476308078162 380.4660744658241L793.3476308078162 385.3814212435404Q793.5387831825052 392.45405910703215 799.2460469410759 395.4032671736619Q804.9533106996463 398.35247524029165 812.217100937827 398.5436276149806ZM808.8855881218193 343.1094389551804L808.8855881218193 343.1094389551804Q798.672589817009 343.1094389551804 794.7403123948358 366.89425586290747L794.7403123948358 366.89425586290747Q798.863742191698 364.1362001709667 802.4956373107883 361.9789090851912Q806.1275324298787 359.8216179994157 808.8855881218193 357.8554792883292L808.8855881218193 357.8554792883292Q814.7840042550789 353.5135896346798 814.9751566297679 348.02478573289665L814.9751566297679 348.02478573289665Q814.9751566297679 343.1094389551804 808.8855881218193 343.1094389551804ZM892.4464833429962 420.5807656684086L892.4464833429962 420.5807656684086Q864.3197767816197 420.7719180430976 854.1067784768092 399.5266969705239L854.1067784768092 399.5266969705239Q850.5568058040141 392.0717543576542 850.5568058040141 380.7664567689068Q850.5568058040141 369.4611591801593 852.5229445151004 356.681257558097L852.5229445151004 356.681257558097Q856.4552219372737 331.1214543139723 867.6785970797258 309.4939284920207L867.6785970797258 309.4939284920207Q873.3858608382963 298.4617057242575 880.458498701788 290.59715087991145L880.458498701788 290.59715087991145Q895.9964560157913 273.3115147116092 915.057078520491 273.5026670862982L915.057078520491 273.5026670862982Q923.5223979710023 273.5026670862982 928.328514820325 278.1176315609318Q933.1346316696475 282.7325960355654 933.1346316696475 291.38906786076575Q933.1346316696475 300.0455396859661 928.0281325172424 308.78393395746167Q922.921633364837 317.5496357110557 914.9478485920973 326.8887945887166Q907.0013713014561 336.2279534663776 897.3618301207124 346.44095177118805Q887.7222889399687 356.681257558097 878.4923599907016 368.669242199305L878.4923599907016 368.669242199305L878.4923599907016 376.5337970436511Q878.4923599907016 387.53871232931584 883.2165543937289 392.6452114817211Q887.9134413146579 397.75171063412637 894.2214696793936 397.75171063412637L894.2214696793936 397.75171063412637Q911.124801098318 397.75171063412637 924.0958550950692 381.039531589891L924.0958550950692 381.039531589891Q929.4208141042619 374.1580461010882 932.1515623141044 374.1580461010882L932.1515623141044 374.1580461010882Q934.909618006045 374.1580461010882 934.909618006045 380.84837921520204Q934.909618006045 387.53871232931584 931.2777228869548 394.52942774651234Q927.6458277678645 401.4928356816104 921.7474116346049 407.30932936857465Q915.8489955013453 413.09851557344047 908.1755930316882 416.83964062092457Q900.5021905620312 420.5807656684086 892.4464833429962 420.5807656684086ZM903.0690938792831 314.9827323938039Q907.192523676145 309.87623324139867 909.5409671366095 305.75280344453665Q911.9167180791723 301.6293736476747 911.9167180791723 297.20556154773Q911.9167180791723 292.7817494477854 908.7763576378535 292.7817494477854L908.7763576378535 292.7817494477854Q901.8948721490509 292.7817494477854 893.5387826269331 306.92702517476886Q885.1826931048155 321.0723009017524 881.0319558258551 344.09250831072364L881.0319558258551 344.09250831072364Q887.7222889399687 333.8522025238147 893.3203227701457 326.97071703501194Q898.9456640824209 320.08923154620913 903.0690938792831 314.9827323938039ZM967.1597543642837 420.5807656684086L967.1597543642837 420.5807656684086Q939.0330478029072 420.7719180430976 928.8200494980966 399.5266969705239L928.8200494980966 399.5266969705239Q925.2700768253015 392.0717543576542 925.2700768253015 380.7664567689068Q925.2700768253015 369.4611591801593 927.2362155363879 356.681257558097L927.2362155363879 356.681257558097Q931.1684929585609 331.1214543139723 942.3918681010133 309.4939284920207L942.3918681010133 309.4939284920207Q948.0991318595837 298.4617057242575 955.1717697230757 290.59715087991145L955.1717697230757 290.59715087991145Q970.7097270370788 273.3115147116092 989.7703495417785 273.5026670862982L989.7703495417785 273.5026670862982Q998.2356689922898 273.5026670862982 1003.0417858416125 278.1176315609318Q1007.847902690935 282.7325960355654 1007.847902690935 291.38906786076575Q1007.847902690935 300.0455396859661 1002.7414035385297 308.78393395746167Q997.6349043861245 317.5496357110557 989.6611196133848 326.8887945887166Q981.7146423227435 336.2279534663776 972.0751011419999 346.44095177118805Q962.4355599612562 356.681257558097 953.2056310119891 368.669242199305L953.2056310119891 368.669242199305L953.2056310119891 376.5337970436511Q953.2056310119891 387.53871232931584 957.9298254150164 392.6452114817211Q962.6267123359452 397.75171063412637 968.9347407006811 397.75171063412637L968.9347407006811 397.75171063412637Q985.8380721196055 397.75171063412637 998.8091261163567 381.039531589891L998.8091261163567 381.039531589891Q1004.1340851255494 374.1580461010882 1006.8648333353918 374.1580461010882L1006.8648333353918 374.1580461010882Q1009.6228890273327 374.1580461010882 1009.6228890273327 380.84837921520204Q1009.6228890273327 387.53871232931584 1005.9909939082421 394.52942774651234Q1002.3590987891517 401.4928356816104 996.4606826558924 407.30932936857465Q990.5622665226327 413.09851557344047 982.8888640529757 416.83964062092457Q975.2154615833186 420.5807656684086 967.1597543642837 420.5807656684086ZM977.7823649005705 314.9827323938039Q981.9057946974325 309.87623324139867 984.2542381578968 305.75280344453665Q986.6299891004597 301.6293736476747 986.6299891004597 297.20556154773Q986.6299891004597 292.7817494477854 983.489628659141 292.7817494477854L983.489628659141 292.7817494477854Q976.6081431703382 292.7817494477854 968.2520536482206 306.92702517476886Q959.895964126103 321.0723009017524 955.7452268471424 344.09250831072364L955.7452268471424 344.09250831072364Q962.4355599612562 333.8522025238147 968.0335937914332 326.97071703501194Q973.6589351037084 320.08923154620913 977.7823649005705 314.9827323938039ZM1077.4546745598172 403.26782201800796L1077.4546745598172 403.26782201800796Q1061.9167172458142 421.56383502395187 1040.2072689775673 421.56383502395187Q1018.4705132272219 421.56383502395187 1007.6567503162461 410.4496898098934Q996.8429874052703 399.33554459583496 997.0341397799592 382.81451792628854L997.0341397799592 382.81451792628854Q996.8429874052703 359.4120057679394 1011.780180113108 342.50867434901505Q1026.7446803030443 325.6053429300907 1050.9118019601492 325.6053429300907L1050.9118019601492 325.6053429300907Q1061.9167172458142 325.6053429300907 1068.607050359928 328.3633986220315L1068.607050359928 328.3633986220315Q1080.2127302517579 333.0875930250589 1080.2127302517579 337.21102282192084L1080.2127302517579 337.21102282192084Q1080.2127302517579 340.3513832632396 1063.9920858852943 340.4606131916333Q1047.7714415188307 340.54253563792855 1036.848448679461 351.656680851987Q1025.95276332219 362.7708260660455 1025.95276332219 379.67415748496984L1025.95276332219 379.67415748496984Q1025.95276332219 388.52178168485915 1031.1684924029887 394.52942774651234Q1036.3569140016893 400.50976632606717 1045.914532736138 400.50976632606717Q1055.4448439884877 400.50976632606717 1061.7255648711252 396.5774889038941L1061.7255648711252 396.5774889038941Q1047.7714415188307 387.15640757993793 1047.7714415188307 369.24269932337194L1047.7714415188307 369.24269932337194Q1047.5802891441417 359.8216179994157 1054.5436970792398 352.03898560136497Q1061.5344124964363 344.2836606854126 1072.4574053358056 344.1744307570189Q1083.3530906930769 344.09250831072364 1088.0772850961039 350.1820768186721Q1092.8014794991313 356.27164532662067 1092.8014794991313 365.80195657897053Q1092.8014794991313 375.3595753134188 1088.2684374707928 385.95487836760725L1088.2684374707928 385.95487836760725L1089.442659201025 385.95487836760725Q1098.0991310262257 385.7637259929183 1104.4071593909616 379.8653098596588L1104.4071593909616 379.8653098596588Q1106.755602851426 377.5168663991943 1108.4213592594297 375.7418800627968Q1110.0871156674339 373.96689372639923 1111.8621020038313 373.96689372639923L1111.8621020038313 373.96689372639923Q1114.620157695772 373.96689372639923 1114.620157695772 380.4660744658241L1114.620157695772 380.4660744658241Q1114.620157695772 392.45405910703215 1107.5475198322802 398.46170516868534Q1100.4748819687884 404.44204374824017 1091.9003325898834 404.44204374824017Q1083.3530906930769 404.44204374824017 1077.4546745598172 403.26782201800796ZM1075.6796882234198 380.4660744658241L1075.6796882234198 380.4660744658241Q1079.0385085215257 373.3934366023323 1079.0385085215257 366.7031034882185Q1079.0385085215257 360.0127703741047 1074.6966188678766 360.0127703741047L1074.6966188678766 360.0127703741047Q1072.9489400135772 360.0127703741047 1071.7474108012466 362.57967369135656Q1070.5731890710144 365.1192695265099 1070.5731890710144 367.4950204690728L1070.5731890710144 367.4950204690728Q1070.5731890710144 375.3595753134188 1075.6796882234198 380.4660744658241Z " fill="#ffffff" transform="matrix(0.785020821450694,0,0,0.785020821450694,0,26.718290777505246)"/></g></svg>